<?xml version="1.0" encoding="UTF-8"?>
<svg xmlns="http://www.w3.org/2000/svg" viewBox="0 0 130.49 107.68">
  <defs>
    <style>
      .cls-1 {
        mix-blend-mode: multiply;
      }

      .cls-1, .cls-2 {
        fill: none;
      }

      .cls-1, .cls-3 {
        opacity: .33;
      }

      .cls-2 {
        isolation: isolate;
      }

      .cls-4 {
        fill: #ffdb72;
      }

      .cls-5 {
        fill: #93278f;
      }

      .cls-3 {
        fill: #fff;
        mix-blend-mode: overlay;
      }
    </style>
  </defs>
  <g class="cls-2">
    <g id="Layer_2" data-name="Layer 2">
      <g id="OBJECTS">
        <g>
          <path class="cls-4" d="m81.5,4.2c-1.61,1.42-3.24,2.74-4.73,4.2-7.08,6.93-11.43,15.31-13.11,25.07-.85,4.98-.84,9.97.01,14.95.06.33.24.65.42.94.89,1.45,1.91,2.79,3.28,3.84,1.58,1.22,3.11,2.51,4.71,3.71,1.36,1.03,2.91,1.72,4.55,2.2.29.08.56.22.84.33.03.07.06.15.09.22-.69.4-1.36.86-2.09,1.19-.77.35-1.6.56-2.38.88-.21.09-.35.36-.52.55.26.07.56.27.78.2,1.29-.43,2.56-.91,3.84-1.38-1.85,2.03-4.14,3.55-6.66,4.89.39.56.72.99,1,1.44.21.33.32.74.56,1.03.29.35.65.64,1.02.91.24.17.55.24.98.41-.37.55-.64,1.1-1.04,1.53-1.26,1.35-2.72,2.45-4.37,3.3-.81.42-1.6.9-2.37,1.4-.31.2-.7.5-.35.89.12.13.64.02.91-.12.76-.41,1.47-.94,2.23-1.35,1.95-1.05,3.64-2.41,5.12-4.05.13-.14.44-.29.56-.23.22.12.5.39.49.6,0,.55-.11,1.1-.24,1.63-.08.34-.5.71,0,.94.14.07.53-.37.79-.59.08-.07.11-.2.19-.34.09.04.18.06.24.11,2.89,2.41,5.79,4.82,9,6.82,5.38,3.34,11.21,5.5,17.45,6.57.18.03.36.07.57.27-.62.11-1.24.27-1.87.32-2.54.22-5.02-.18-7.47-.8-.3-.08-.6-.15-.9-.16-.12,0-.34.12-.36.23-.03.11.09.34.2.39.34.16.69.3,1.06.39,3.46.85,6.93,1.38,10.45.38.06-.02.13,0,.32,0-.22.16-.35.27-.49.35-8.51,5.09-17.72,7.42-27.6,6.58-15.79-1.35-28.13-8.65-36.62-22.09-5.35-8.46-7.48-17.79-6.53-27.77,1.74-18.36,14.23-32.93,31.02-38.53,5.41-1.8,10.97-2.55,16.67-2.33.12,0,.23.03.38.05Zm-28.42,51.07c.26-.12.45-.22.64-.3,2.02-.95,3.59-2.39,4.71-4.32.14-.24.27-.66.16-.84-.62-1.03-.97-2.13-1.09-3.32-.02-.15-.28-.42-.38-.4-.18.04-.4.23-.47.4-.08.2-.07.47-.01.69.2.77.36,1.57.67,2.29.24.57.13.97-.18,1.43-1.92,2.78-4.59,4.14-7.93,4.04-1.3-.04-2.58-.44-3.88-.65-.24-.04-.51.05-.76.09.11.26.16.57.35.75.21.2.52.31.81.4,1.7.51,3.44.67,5.16.3.88-.19,1.47-.16,1.82.75.05.12.16.26.28.31.19.09.41.12.62.18.02-.22.11-.46.05-.65-.13-.37-.34-.72-.55-1.14Zm11.98-37.68c.08.04.16.08.25.12.18-.17.38-.32.52-.51.35-.47.68-.96.99-1.46,1.96-3.08,4.24-5.86,7.33-7.89.17-.11.23-.39.35-.6-.25,0-.58-.09-.74.03-.94.7-1.89,1.4-2.74,2.2-2.28,2.16-4.31,4.52-5.74,7.35-.11.23-.14.49-.21.74Zm-6.37,47.77c-.15-.34-.22-.56-.34-.75-1.19-2-2.37-4-3.59-5.98-.13-.22-.48-.31-.73-.46-.02.28-.15.62-.04.81,1.14,2,2.31,3.98,3.49,5.96.13.21.33.42.55.53.14.07.37-.06.66-.11Zm15.63,10.14c-.21-.16-.35-.36-.51-.38-.18-.02-.39.12-.58.21-.86.42-1.72.85-2.57,1.27-.36.17-.76.29-1.07.53-.19.15-.22.48-.33.73.25.02.53.13.76.06.47-.15.91-.37,1.35-.6.81-.42,1.61-.85,2.4-1.3.17-.1.3-.28.55-.52Zm-15.25-17.78c-.13.07-.39.12-.41.23-.05.2-.04.5.08.63.81.88,1.64,1.73,2.5,2.56.15.14.48.08.73.11-.03-.23.02-.54-.11-.69-.77-.88-1.58-1.72-2.38-2.57-.09-.1-.23-.15-.41-.27Zm1.16-29.17c.13.33.16.6.29.67.13.07.44,0,.54-.12.69-.83,1.36-1.68,2-2.54.09-.12.06-.48-.04-.56-.15-.11-.53-.16-.61-.06-.75.85-1.47,1.74-2.18,2.61Zm-.06,3.48c.15.38.18.69.33.76.14.07.48-.04.6-.19.61-.75,1.18-1.51,1.73-2.3.1-.15.09-.55,0-.61-.18-.11-.58-.16-.68-.05-.69.78-1.33,1.6-1.97,2.39Zm-9.14,28.91c-.23.31-.52.51-.5.68.12.99.28,1.98.49,2.96.03.16.38.25.58.38.1-.21.31-.44.29-.63-.1-.88-.25-1.76-.42-2.64-.04-.21-.22-.38-.44-.75Zm10.02-36.15c.12.37.13.62.25.72.09.07.4.01.51-.09.65-.67,1.28-1.36,1.89-2.07.08-.1.07-.39-.02-.5-.09-.1-.4-.16-.48-.09-.74.66-1.45,1.35-2.15,2.02Zm7.59,40.15c.1.22.14.47.28.55.13.07.49,0,.53-.09.39-.86,1.12-1.36,1.86-1.86.12-.08.11-.35.16-.54-.21-.04-.48-.18-.61-.09-.51.32-1.01.68-1.46,1.08-.29.26-.49.61-.76.96Zm-6.39-42.59c.18-.02.27,0,.32-.04.67-.53,1.38-1.02,2-1.61.26-.25-.15-.77-.44-.57-.72.5-1.36,1.13-2.01,1.74-.06.06.08.32.13.48Zm27.35,64.08c.24.05.32.09.38.07.26-.07.52-.15.78-.23-.18-.21-.32-.48-.54-.6-.39-.21-.82-.36-1.25-.45-.2-.04-.44.11-.66.18.1.21.13.52.3.62.35.22.77.32,1,.41Zm-38.31-26.97c-.03-.52-.01-.95-.1-1.35-.04-.17-.31-.41-.46-.41-.16,0-.43.27-.44.43-.03.44,0,.89.1,1.32.04.17.31.4.47.4.16,0,.31-.27.43-.39ZM76.49,5.99c.59.05,1.78-.39,2.07-.79.23-.31.21-.58-.22-.67-.59-.12-1.79.84-1.86,1.45Zm-18.78,50.61c-.19-.24-.37-.59-.64-.78-.23-.16-.76-.31-.86-.2-.43.49.08.78.38,1.07.26.24.55.57.96.21.05-.04.07-.12.16-.3Z"/>
          <path class="cls-4" d="m81.12,32.43c1.65-.3,3.32-.55,4.96-.91,2.8-.62,5.59-1.31,8.37-2,.32-.08.62-.32.89-.54,1.68-1.35,2.66-3.2,3.63-5.07,2.17-4.17,3.81-8.55,5.04-13.08.03-.1.07-.2.04-.11.33,1.87.67,3.89,1.04,5.91.02.1.19.18.46.42.21-1.83-.42-3.44-.31-5.2.38,1.15.72,2.2,1.06,3.24,1.23,3.82,2.92,7.44,4.9,10.93.3.53.65,1.03,1.03,1.51.99,1.25,2.18,2.1,3.83,2.41,3.86.73,7.68,1.61,11.52,2.42.1.02.21.05.33.21-.28.07-.56.14-.84.22-3.47.93-6.95,1.86-10.42,2.8-.43.12-.85.28-1.26.45-.19.08-.38.21-.5.36-.38.48-.68,1.04-1.1,1.49-1.58,1.68-2.51,3.73-3.41,5.81-2.23,5.13-3.51,10.52-4.5,15.99-.46,2.52-.93,5.03-1.41,7.6-.13-.7-.26-1.37-.38-2.04-.4-2.19-.78-4.39-1.18-6.59-.89-4.94-2.13-9.79-4.08-14.44-1.1-2.62-2.27-5.18-4.41-7.14-.41-1.36-1.7-1.41-2.74-1.71-3.23-.92-6.5-1.74-9.75-2.6-.27-.07-.54-.14-.81-.21,0-.06,0-.11,0-.17Zm24.85-13.2c-.08,0-.15.01-.23.02-.05.25-.15.49-.14.74.13,2.21.73,4.3,1.51,6.35.88,2.3,1.98,4.47,3.78,6.22.19.18.69.35.81.24.38-.31.04-.6-.2-.87-.61-.68-1.27-1.33-1.8-2.07-1.44-2.02-2.21-4.35-2.82-6.73-.28-1.09-.43-2.21-.66-3.32-.04-.2-.17-.38-.26-.58Zm-1.34,32.01c.08.15.15.44.23.44.21,0,.49-.06.61-.2.68-.8,1.34-1.63,1.96-2.47.12-.16.03-.47.04-.7-.25.03-.61-.04-.74.1-.61.65-1.16,1.34-1.71,2.04-.17.22-.25.49-.4.8Zm3.19-6.17c-.04-.06-.12-.26-.18-.25-.24.02-.55.03-.69.18-.61.65-1.17,1.34-1.72,2.03-.13.17-.2.44-.19.65,0,.12.26.33.39.32.4-.03,2.39-2.46,2.39-2.93Zm.33-10.01c-.02-.08-.03-.19-.08-.26-.52-.75-1.03-1.51-1.58-2.24-.08-.1-.4-.15-.48-.08-.13.11-.26.42-.19.52.51.8,1.03,1.61,1.63,2.34.24.29.61.19.71-.29Zm-3.58,19.69c.18.26.28.53.4.55.19.02.49-.09.58-.25.38-.67.73-1.36,1.04-2.06.07-.16-.03-.51-.16-.6-.13-.09-.53-.02-.6.11-.45.73-.84,1.49-1.26,2.25Zm5.65-20.74c-.65-.65-1.28-1.29-1.92-1.9-.05-.04-.32.03-.35.11-.07.15-.12.4-.04.51.45.59.93,1.16,1.44,1.71.09.1.36.11.51.06.11-.04.18-.23.37-.49Zm-4.03-5.87c-.1.16-.3.35-.27.43.25.53.55,1.04.86,1.54.04.06.31.06.37-.01.1-.1.18-.32.13-.42-.2-.45-.43-.88-.68-1.29-.06-.1-.23-.14-.43-.25Z"/>
          <path d="m70.92,73.3c-.12.08-.26.16-.41.23-.58.42-1.19.78-1.83,1.1-.81.42-1.59.91-2.37,1.4-.3.2-.7.5-.34.9.11.12.65.02.91-.12.76-.41,1.47-.94,2.23-1.34,1.61-.87,3.05-1.95,4.34-3.24-.87-.02-1.75.57-2.52,1.08Zm34.94,13.17c-.3-.03-.61-.06-.92-.1-.28-.03-.55-.06-.83-.1-9.61-1.37-18.03-5.27-25.25-11.77-.22-.2-.53-.29-.74-.5-.61-.62-1.4-1.2-1.74-1.95-.33-.76-.56-1.48-1.37-1.87.17-.71.03-1.33-.76-1.49-1.24-.24-1.64-1.27-2.36-2.22.2-.08.33-.11.46-.19,2.32-1.42,4.5-3.01,6.19-5.17.94-1.21.71-2.03-.72-2.61-.87-.36-1.8-.67-2.68-1.04-.01-.01-.02-.02-.03-.01-.51-.22-1.01-.47-1.48-.76-.7-.44-1.37-.93-2.03-1.43-.01-.01-.02-.02-.03-.02-1.09-.82-2.16-1.7-3.25-2.52-1.44-1.07-2.54-2.44-3.43-3.98-.26-.45-.49-.97-.56-1.48-.59-4.12-.6-8.25-.02-12.37,1.33-9.44,5.25-17.64,11.75-24.6,1.95-2.07,4.08-3.93,6.45-5.64.49-.35.98-.7,1.49-1.04-.24-.05-.33-.08-.42-.08-2.34-.06-4.7-.27-7.04-.15-20.19,1.06-37.46,14.82-42.58,33.93-2.54,9.51-2.11,18.86,1.37,28.06,6.42,16.97,22.1,28.78,40.54,30.34,11.1.94,21.32-1.73,30.62-7.87.3-.2.66-.32,1.04-.51v-.68c-.59-.06-1.15-.11-1.7-.17Zm-1.67,1.82c-8.51,5.09-17.71,7.42-27.6,6.58-15.79-1.34-28.13-8.65-36.63-22.08-5.34-8.46-7.48-17.79-6.53-27.78,1.74-18.37,14.23-32.93,31.01-38.53,5.41-1.8,10.97-2.54,16.67-2.32.11,0,.23.02.37.04-.15.14-.3.26-.45.4-1.47,1.27-2.93,2.48-4.28,3.81-7.08,6.93-11.43,15.31-13.11,25.07-.85,4.98-.83,9.97.01,14.95.06.33.24.65.42.94.45.73.93,1.43,1.47,2.07h.01c.53.66,1.12,1.25,1.8,1.77,1.58,1.22,3.11,2.51,4.71,3.72,1.36,1.03,2.92,1.72,4.55,2.2.29.08.56.22.84.33.03.07.06.15.09.22-.7.41-1.36.86-2.08,1.2-.77.34-1.6.55-2.38.87-.2.09-.34.33-.49.53l-.03.03c.26.07.56.26.78.19,1.29-.43,2.55-.91,3.83-1.37-1.85,2.03-4.13,3.55-6.65,4.88.39.56.71.99,1,1.45.21.33.31.73.56,1.03.28.34.65.65,1.02.91.24.17.54.24.98.42-.37.55-.64,1.1-1.04,1.53-.77.83-1.62,1.56-2.54,2.2-.58.42-1.19.78-1.83,1.1-.81.42-1.59.91-2.37,1.4-.3.2-.7.5-.34.9.11.12.65.02.91-.12.76-.41,1.47-.94,2.23-1.34,1.61-.87,3.05-1.95,4.34-3.24.27-.26.53-.53.78-.81.12-.15.45-.29.55-.23.22.11.5.4.5.6,0,.54-.1,1.09-.24,1.62-.08.34-.5.71,0,.95.14.06.52-.36.78-.59.08-.07.11-.2.19-.33.08.04.18.05.24.1,2.89,2.42,5.8,4.83,9.01,6.82,5.38,3.34,11.21,5.5,17.45,6.58.19.03.36.07.57.27-.62.1-1.24.27-1.87.32-.03,0-.06.01-.09.01-2.51.2-4.96-.2-7.37-.81-.3-.07-.6-.15-.91-.17-.12,0-.33.12-.36.23-.02.11.09.34.2.4.34.16.7.3,1.06.39,3.46.85,6.92,1.38,10.45.39.06-.02.14-.01.31-.01-.22.16-.34.27-.49.35Zm-33.27-14.99c-.12.08-.26.16-.41.23-.58.42-1.19.78-1.83,1.1-.81.42-1.59.91-2.37,1.4-.3.2-.7.5-.34.9.11.12.65.02.91-.12.76-.41,1.47-.94,2.23-1.34,1.61-.87,3.05-1.95,4.34-3.24-.87-.02-1.75.57-2.52,1.08Z"/>
          <path d="m129.57,31.7c-.09-.02-.19-.02-.28-.04-4.58-.71-9.14-1.5-13.59-2.84-.33-.1-.72-.21-.95-.44-.87-.94-1.87-1.83-2.51-2.93-1.22-2.08-2.34-4.25-3.28-6.47-1.78-4.19-3.27-8.46-3.98-12.98-.03-.22-.31-.4-.48-.58-.17.19-.4.36-.46.58-.14.43-.14.89-.23,1.32-1.31,5.76-3.3,11.28-6.07,16.5-.88,1.67-1.85,3.28-3.38,4.47-.22.17-.46.34-.72.42-2.49.62-4.96,1.3-7.46,1.83-2.28.48-4.59.77-6.88,1.2-.3.06-.55.4-.82.6.23.23.43.56.71.68.67.27,1.37.46,2.08.65,3.52.95,7.04,1.87,10.56,2.82.27.07.55.19.75.36,2.46,2.1,3.91,4.83,5.17,7.78,2.6,6.08,3.57,12.57,5.02,18.93.42,1.85.57,3.76.88,5.63.07.45,0,1.11.91.98.62.24.69-.3.76-.76.27-1.69.46-3.39.79-5.08.59-3.07,1.28-6.12,1.91-9.18,1.01-4.95,2.61-9.68,4.97-14.14,1.37-2.6,3.3-4.74,6.49-5.22.78-.12,1.55-.39,2.32-.59,2.63-.7,5.27-1.38,7.89-2.12.32-.09.77-.46.8-.73.06-.55-.52-.54-.92-.65Zm-12.9,3.91c-.44.11-.85.27-1.26.45-.19.08-.39.21-.5.36-.39.49-.69,1.04-1.1,1.49-1.58,1.69-2.51,3.74-3.41,5.81-.99,2.29-1.8,4.63-2.48,7.01-.83,2.95-1.48,5.96-2.03,8.98-.21,1.19-.43,2.38-.65,3.58-.25,1.33-.51,2.68-.76,4.03-.12-.7-.26-1.37-.39-2.04-.4-2.2-.78-4.39-1.18-6.59-.9-4.95-2.13-9.79-4.08-14.44-1.09-2.62-2.27-5.17-4.41-7.14-.42-1.35-1.7-1.41-2.74-1.71-3.24-.92-6.5-1.74-9.74-2.59-.27-.07-.54-.14-.81-.21v-.17c1.64-.3,3.31-.55,4.96-.92,2.8-.62,5.58-1.31,8.37-2,.32-.08.61-.32.88-.54,1.69-1.35,2.67-3.2,3.63-5.06,2.18-4.17,3.81-8.55,5.04-13.09.03-.09.07-.2.04-.1.32,1.87.67,3.89,1.04,5.91.02.1.19.18.46.42.22-1.83-.42-3.44-.3-5.2.37,1.15.72,2.2,1.06,3.24.22.7.46,1.38.72,2.06,1.13,3.07,2.56,6.02,4.19,8.87.29.52.65,1.03,1.03,1.51.26.33.54.64.83.91.82.75,1.78,1.27,3,1.5,3.85.73,7.68,1.61,11.52,2.43.03.01.06.01.09.03.07.02.15.07.23.19-.27.07-.55.15-.83.22-2.59.69-5.2,1.38-7.79,2.09-.87.23-1.76.47-2.63.71Z"/>
          <path d="m96.83,94.68c-.33.25-.63.6-1,.73-1.81.66-3.6,1.41-5.46,1.87-4.6,1.14-9.28,1.86-14.04,1.47-2.69-.22-5.35-.72-8.02-1.13-.23-.03-.41-.35-.61-.54.26-.1.53-.32.76-.28,1.68.24,3.34.54,5.02.79,4.69.7,9.33.3,13.95-.58,2.73-.52,5.42-1.19,7.96-2.35.39-.18.86-.2,1.29-.3.05.11.1.21.15.32Z"/>
          <path d="m38.97,89.38c-.26.43-.46.81-.71,1.15-2.74,3.65-5.47,7.3-8.23,10.93-1.42,1.87-2.89,3.71-4.34,5.56-.03.04-.06.07-.09.11-.27.33-.6.77-1.03.42-.43-.35-.07-.77.19-1.11,3.87-5,7.75-9.99,11.62-14.99.57-.74,1.09-1.53,1.68-2.26.14-.18.46-.21.7-.31.07.18.15.36.21.51Z"/>
          <path d="m26.33,75.52c-.43.36-.68.64-1,.82-1.97,1.1-3.95,2.19-5.94,3.25-3.4,1.82-6.81,3.61-10.22,5.41-.35.18-.72.35-1.11.45-.16.04-.46-.06-.54-.19-.07-.12.02-.42.13-.55.18-.21.43-.37.67-.5,1.72-.96,3.44-1.93,5.19-2.86,3.8-2.01,7.62-3.99,11.44-5.98.23-.12.47-.26.71-.26.18,0,.35.21.66.41Z"/>
          <path d="m.34,59.18c-.12-.14-.33-.28-.34-.44-.01-.16.14-.41.29-.49.21-.12.49-.15.74-.19,5.52-.9,11.05-1.79,16.57-2.68.02,0,.05-.01.07-.01.39-.04.9-.18.97.35.02.18-.5.57-.82.63-4.31.74-8.63,1.43-12.94,2.13-1.25.2-2.5.42-3.76.63-.23.04-.46.05-.77.09Z"/>
          <path d="m70.07,1.91c-.18.08-.36.21-.54.24-3.71.55-7.21,1.76-10.64,3.22-.25.11-.61-.07-.92-.12.17-.25.29-.62.53-.72,3.47-1.49,7.02-2.7,10.79-3.16.37-.05.71-.04.78.53Z"/>
          <path d="m88.64,99.85c-.11-.11-.34-.24-.35-.38,0-.15.18-.39.33-.45.32-.12.69-.12,1.03-.21,1.24-.35,2.47-.74,3.71-1.06.33-.09.7,0,1.05.02-.25.27-.45.68-.75.77-1.47.47-2.96.86-4.45,1.26-.15.04-.32.03-.57.05Z"/>
          <path d="m23.31,55.9c-.08-.1-.32-.26-.32-.43,0-.18.19-.5.34-.53,1.36-.25,2.72-.47,4.09-.65.17-.02.38.26.57.4-.13.17-.24.45-.41.48-1.33.27-2.67.5-4.01.74-.04,0-.09,0-.27-.02Z"/>
          <path d="m33.15,71.58c-.16.17-.26.34-.41.43-.8.53-1.59,1.07-2.44,1.53-.24.13-.63-.02-.95-.04.14-.28.21-.67.43-.83.76-.54,1.57-1.03,2.38-1.48.21-.12.53-.08.78-.04.08.01.12.26.19.42Z"/>
          <path d="m86.11,99.85c-.21.12-.42.31-.65.33-.93.07-1.87.12-2.8.11-.2,0-.39-.3-.59-.46.21-.14.41-.39.63-.4.91-.04,1.83-.01,2.74.02.21,0,.43.12.64.18,0,.07.02.15.03.22Z"/>
          <path d="m75.81.93c.17.14.33.27.49.4-.18.12-.36.32-.54.33-1.03.08-2.06.14-3.08.16-.19,0-.39-.22-.58-.35.17-.13.34-.36.52-.37,1.05-.09,2.1-.12,3.21-.18Z"/>
          <path d="m57.41,3.5c.01-.28-.07-.69.06-.77.74-.49,1.52-.91,2.31-1.31.12-.06.39.08.53.19.06.05,0,.37-.08.43-.79.5-1.6.97-2.4,1.44-.05.03-.14,0-.42.02Z"/>
          <path d="m63.54,96.13c-.33-.12-.85-.25-1.29-.51-.21-.13-.27-.52-.39-.79.27-.04.57-.16.8-.09.63.19,1.24.44,1.83.73.21.1.34.39.5.59-.25.07-.49.17-.74.2-.18.02-.37-.06-.71-.14Z"/>
          <path d="m40.98,85.55c-.04-.26-.21-.61-.11-.74.46-.58.99-1.12,1.53-1.64.09-.09.39-.09.51,0,.11.08.21.4.14.47-.52.62-1.07,1.22-1.63,1.82-.05.05-.18.04-.45.09Z"/>
          <path d="m63.52,1.32c-.16-.14-.33-.21-.35-.31-.03-.14.03-.4.11-.42.71-.23,1.42-.42,2.14-.59.08-.02.26.19.3.32.03.1-.07.32-.16.35-.68.24-1.38.44-2.05.65Z"/>
          <path d="m53.08,55.27c.21.42.42.76.55,1.14.06.19-.03.43-.05.65-.21-.06-.43-.09-.62-.18-.12-.06-.23-.19-.28-.31-.35-.9-.94-.93-1.82-.75-1.73.37-3.47.21-5.16-.3-.29-.09-.61-.2-.81-.4-.18-.18-.24-.5-.35-.75.25-.03.52-.12.76-.09,1.29.21,2.58.62,3.88.65,3.34.09,6.01-1.26,7.93-4.04.31-.46.43-.86.18-1.43-.31-.73-.47-1.52-.67-2.29-.06-.22-.07-.49.01-.69.07-.18.29-.36.47-.4.1-.02.36.25.38.4.12,1.19.47,2.29,1.09,3.32.11.19-.02.6-.16.84-1.12,1.92-2.69,3.37-4.71,4.32-.19.09-.38.18-.64.3Z"/>
          <path d="m65.06,17.59c.07-.25.1-.52.21-.74,1.43-2.83,3.47-5.19,5.74-7.35.85-.8,1.8-1.5,2.74-2.2.16-.12.49-.03.74-.03-.11.2-.18.48-.35.6-3.1,2.03-5.38,4.81-7.33,7.89-.31.5-.64.98-.99,1.46-.14.19-.35.34-.52.51-.08-.04-.16-.08-.25-.12Z"/>
          <path d="m58.7,65.36c-.29.06-.52.18-.66.11-.22-.11-.42-.31-.55-.53-1.18-1.98-2.35-3.96-3.49-5.96-.11-.2.02-.54.04-.81.25.15.59.24.73.46,1.22,1.98,2.4,3.98,3.59,5.98.12.19.19.41.34.75Z"/>
          <path d="m74.33,75.5c-.25.24-.38.42-.55.52-.79.45-1.59.88-2.4,1.3-.44.23-.88.45-1.35.6-.22.07-.5-.03-.76-.06.1-.25.14-.59.33-.73.3-.24.71-.35,1.07-.53.86-.42,1.71-.85,2.57-1.27.19-.09.39-.23.58-.21.16.01.3.21.51.38Z"/>
          <path d="m59.08,57.73c.18.12.32.17.41.27.8.85,1.61,1.69,2.38,2.57.13.15.07.46.11.69-.25-.03-.59.03-.73-.11-.86-.82-1.69-1.68-2.5-2.56-.12-.13-.13-.44-.08-.63.03-.11.29-.16.41-.23Z"/>
          <path d="m60.24,28.56c.71-.87,1.43-1.76,2.18-2.61.09-.1.46-.05.61.06.1.07.13.43.04.56-.64.87-1.31,1.71-2,2.54-.1.12-.42.19-.54.12-.13-.07-.16-.34-.29-.67Z"/>
          <path d="m60.18,32.04c.64-.79,1.28-1.61,1.97-2.39.1-.11.5-.07.68.05.1.06.11.47,0,.61-.55.79-1.13,1.56-1.73,2.3-.12.14-.45.25-.6.19-.15-.07-.18-.38-.33-.76Z"/>
          <path d="m51.04,60.95c.22.37.4.55.44.75.17.87.32,1.75.42,2.64.02.2-.18.42-.29.63-.2-.12-.55-.22-.58-.38-.21-.98-.37-1.97-.49-2.96-.02-.17.27-.38.5-.68Z"/>
          <path d="m61.07,24.79c.7-.67,1.41-1.36,2.15-2.02.08-.07.4-.02.48.09.09.1.1.4.02.5-.61.71-1.24,1.4-1.89,2.07-.1.11-.42.17-.51.09-.13-.11-.14-.35-.25-.72Z"/>
          <path d="m68.65,64.95c.27-.35.47-.7.76-.96.45-.4.95-.76,1.46-1.08.13-.08.4.06.61.09-.05.18-.04.45-.16.54-.74.5-1.47,1-1.86,1.86-.05.1-.4.16-.53.09-.14-.07-.18-.33-.28-.55Z"/>
          <path d="m62.26,22.36c-.04-.16-.19-.43-.13-.48.64-.61,1.28-1.24,2.01-1.74.29-.2.7.32.44.57-.61.59-1.32,1.08-2,1.61-.05.04-.13.02-.32.04Z"/>
          <path d="m89.61,86.44c-.23-.09-.65-.2-1-.41-.17-.1-.2-.41-.3-.62.22-.06.46-.22.66-.18.43.09.86.24,1.25.45.22.12.36.4.54.6-.26.08-.52.16-.78.23-.06.02-.14-.02-.38-.07Z"/>
          <path d="m51.3,59.47c-.12.12-.28.39-.43.39-.16,0-.43-.23-.47-.4-.1-.43-.14-.88-.1-1.32.01-.16.28-.42.44-.43.15,0,.42.23.46.41.09.41.07.84.1,1.35Z"/>
          <path d="m76.49,5.99c.07-.62,1.27-1.57,1.86-1.45.43.09.45.35.22.67-.3.39-1.49.84-2.07.79Z"/>
          <path d="m57.71,56.61c-.09.18-.11.26-.16.3-.41.35-.7.03-.96-.21-.31-.28-.81-.58-.38-1.07.1-.11.63.04.86.2.28.2.45.54.64.78Z"/>
          <path d="m105.97,19.24c.09.19.22.37.26.58.23,1.1.38,2.23.66,3.32.61,2.38,1.38,4.7,2.82,6.73.53.74,1.19,1.39,1.8,2.07.24.27.58.56.2.87-.13.1-.63-.06-.81-.24-1.79-1.74-2.9-3.91-3.78-6.22-.78-2.05-1.39-4.14-1.51-6.35-.01-.24.09-.49.14-.74.08,0,.15-.01.23-.02Z"/>
          <path d="m104.63,51.24c.15-.3.24-.58.4-.8.55-.7,1.1-1.4,1.71-2.04.13-.14.49-.07.74-.1,0,.24.07.54-.04.7-.62.85-1.28,1.67-1.96,2.47-.12.14-.4.2-.61.2-.08,0-.16-.29-.23-.44Z"/>
          <path d="m107.82,45.08c0,.47-1.99,2.9-2.39,2.93-.13,0-.38-.2-.39-.32-.02-.21.06-.48.19-.65.55-.7,1.12-1.38,1.72-2.03.14-.15.45-.16.69-.18.06,0,.15.2.18.25Z"/>
          <path d="m108.15,35.07c-.1.48-.47.58-.71.29-.6-.73-1.12-1.54-1.63-2.34-.06-.1.07-.41.19-.52.08-.07.41-.02.48.08.55.73,1.06,1.49,1.58,2.24.05.07.05.18.08.26Z"/>
          <path d="m104.57,54.76c.42-.76.81-1.53,1.26-2.25.08-.13.47-.19.6-.11.13.09.23.44.16.6-.31.71-.65,1.4-1.04,2.06-.09.15-.39.26-.58.25-.13-.01-.22-.29-.4-.55Z"/>
          <path d="m110.21,34.02c-.18.26-.25.46-.37.49-.15.05-.42.04-.51-.06-.5-.55-.98-1.12-1.44-1.71-.08-.11-.03-.36.04-.51.03-.08.3-.16.35-.11.65.62,1.27,1.25,1.92,1.9Z"/>
          <path d="m106.18,28.15c.2.11.37.15.43.25.25.42.48.85.68,1.29.05.11-.04.32-.13.42-.07.07-.34.07-.37.01-.31-.5-.61-1.01-.86-1.54-.04-.08.16-.27.27-.43Z"/>
          <g class="cls-1">
            <path class="cls-5" d="m127.7,32.4c-6.26-.06-12.09-.17-18.05,1.04-.04,0-.08.01-.12.02.03-.02.06-.03.09-.05.45-.25.88-.53,1.3-.84.07-.04.15-.1.22-.16.16-.12.31-.26.46-.4.9-.83,1.61-1.92,1.53-3.12-.01-.15-.02-.3-.04-.45-.49-3.81-3.91-7.46-6.05-11.29-.67-1.19-1.22-2.39-1.51-3.62.97,5.08,2.98,9.68,3.64,14.78.03.28.06.55.08.83h0c.05.49.06.97,0,1.44h0c-.03.31-.1.61-.21.9-.12.32-.28.62-.49.88-.15.21-.31.39-.5.55-.25.24-.54.45-.85.62-.25.16-.51.28-.78.4-.29.14-.6.24-.92.34-.19-.03-.37-.05-.55,0-.14.03-.25.12-.36.26-.47.11-.94.22-1.39.29.4.03.8.04,1.2.02-1.27,2.59-.4,12.85-.37,14.26.07,3.83,1.18,9.46,1.23,14.17.01,1.45-.07,2.8-.31,3.99,1.28-5.46,1.74-11.09,2.99-16.55.02-.1.05-.21.07-.31,1.33-5.65,3.7-11.31,8.05-15.14.26-.01.51-.03.75-.06.72-.09,1.58-.2,2.52-.31,3.1-.4,6.97-1.03,8.92-2.5h-.53Z"/>
          </g>
          <g class="cls-1">
            <path class="cls-5" d="m71.58,55.23c-1.96-1.11-3.94-2.19-5.72-3.54-.09-.07-.2-.15-.29-.24h-.01c-8.01-6.3-10.58-18.19-7.02-27.77,1.97-5.3,5.6-9.86,10.07-13.29,2.24-1.72,5.07-3.66,8.05-4.81.67-.26,1.35-.48,2.03-.64.79-.2,1.57-.32,2.36-.34.5-.03.99-.02,1.48.04-2.37,1.72-4.51,3.57-6.45,5.64-6.51,6.97-10.42,15.16-11.75,24.6-.58,4.12-.57,8.25.02,12.37.07.51.3,1.03.56,1.48.88,1.54,1.99,2.9,3.43,3.98,1.09.82,2.16,1.7,3.25,2.52Z"/>
          </g>
          <g class="cls-1">
            <path class="cls-5" d="m106.1,87.35c-1.59.18-3.21.24-4.8.18-7.35-.26-14.62-2.94-20.31-7.59-2.14-1.75-4.34-3.88-7.12-3.99h-.03c.08-.23.15-.47.2-.71.22-.96.2-1.97-.03-2.93-.19-.07-.37-.1-.56-.1-.87-.02-1.75.57-2.52,1.08-.12.08-.26.16-.41.23-.91.47-2.01.71-2.68,0,1.87-1.84,2.54-4.81,1.62-7.28.03-.54.19-1.05.44-1.52.34-.68.87-1.27,1.5-1.75.19-.15.39-.28.59-.4.2-.11.41-.22.61-.31,1.18-.56,2.5-.83,3.78-1.09.73-.15,1.67-.6,1.45-1.31-.06-.2-.21-.34-.35-.49-.72-.72-1.51-1.35-2.33-1.94.87.37,1.8.68,2.68,1.04,1.43.58,1.66,1.41.72,2.61-1.7,2.17-3.87,3.76-6.19,5.17-.12.07-.26.1-.46.19.72.95,1.12,1.98,2.36,2.22.79.16.93.78.76,1.49.81.4,1.04,1.11,1.37,1.87.34.75,1.12,1.32,1.74,1.95.21.21.52.3.74.5,7.21,6.51,15.64,10.4,25.25,11.77.28.04.55.07.83.1.37.34.76.67,1.16.99Z"/>
          </g>
          <g class="cls-1">
            <path class="cls-5" d="m58.58,53.93c1.52-2.49.88-6.07-1.36-7.82-.45,1.72-.74,3.41-1.9,4.83-2.28,2.79-5.85,4.49-9.46,4.48,2.74,2.03,6.6,2.43,9.71,1.02,1.21-.55,2.32-1.38,3.01-2.51Z"/>
          </g>
          <g>
            <path class="cls-3" d="m54.68,48.05c-.13.18-.29.31-.45.46-.31.29-.64.54-.96.81-.35.3-.65.66-1.01.95-.27.22-.65.46-.98.67-1.49.92-3.17,1.21-4.9,1.36-.72.06-.85.99-.17,1.25,1.99.75,4.31.17,6.13-.81.89-.48,1.93-1.22,2.51-2.06.29-.43.51-.95.67-1.43.14-.42.39-.99.13-1.4-.1-.16-.25-.2-.43-.17-.24.04-.39.17-.53.36Z"/>
            <g>
              <path class="cls-3" d="m74.31,59.27c-.76-.6-1.49-1.24-2.28-1.8-.36-.25-.75-.59-1.15-.76-.44-.18-1.07-.25-1.39.17-.3.38-.12.92.11,1.28.26.4.75.71,1.11,1.01.26.22.53.42.81.62-.64.29-1.27.61-1.87.99-1,.64-2.21,1.44-2.65,2.6-.12.33.26.71.59.59.52-.2.98-.53,1.42-.86.46-.34.95-.66,1.45-.94.91-.51,1.83-.87,2.84-1.14.09.02.18.02.27.02.43-.03.79-.24.96-.65.15-.35.11-.89-.22-1.15Z"/>
              <path class="cls-3" d="m71.03,88.71c-3.17-1.23-6.09-2.65-8.98-4.44-2.7-1.67-5.04-3.73-7.3-5.94-1.16-1.14-2-2.47-3.02-3.72-1.02-1.25-2.04-2.48-2.96-3.81-1.83-2.65-3.37-5.52-4.48-8.55-2.42-6.62-3.63-13.67-2.7-20.69.87-6.57,3.25-12.69,7.05-18.12,2.01-2.87,4.33-5.59,6.96-7.91,2.82-2.47,6.03-4.21,9.04-6.38.48-.34.2-1.09-.4-.96-3.24.68-6.42,2.61-9.11,4.49-2.75,1.92-5.45,4.11-7.68,6.62-4.78,5.37-8.26,11.86-10.04,18.83-1.91,7.48-1.76,15.79.35,23.2,1.04,3.64,2.68,7.19,4.68,10.4,1.9,3.05,4.11,6.08,7,8.24,1.64,1.22,3.18,2.6,4.92,3.67,1.63,1,3.3,1.95,5.01,2.81,3.48,1.75,7.4,3.08,11.26,3.63.91.13,1.26-1.05.38-1.39Z"/>
            </g>
          </g>
          <path class="cls-3" d="m71.34,74.82s-.02-.01-.03-.02c-.14-.12-.33-.21-.49-.19-.23.02-.48.02-.69.11-.18.08-.36.15-.54.23-.31.13-.61.26-.92.4-.31.13-.62.25-.91.42-.14.08-.28.16-.41.24-.07.04-.14.08-.21.12-.07.04-.14.08-.2.14-.06.05-.1.12-.13.19-.3.28-.08.8.31.82.14.05.29.07.42.04.31-.08.63-.14.93-.23.31-.09.61-.22.91-.33.3-.11.6-.22.9-.33.16-.06.32-.11.48-.18.21-.09.39-.26.57-.4.12-.09.19-.28.21-.45,0-.02.01-.04.02-.06.06-.18-.04-.43-.21-.51Z"/>
          <path class="cls-3" d="m104.15,28.04c-.04-.28-.2-.47-.41-.59-.25-3.88-.12-7.79.51-11.63.25-1.51-1.86-2.16-2.34-.64-.71,2.27-1.56,4.49-2.45,6.69-.67,1.68-1.47,3.32-2.11,5.02-.92.51-1.88.97-2.83,1.33-.77.29-.98.97-.81,1.53-.29.1-.59.19-.88.29-.03.01-.07.02-.1.03-.12.02-.25.03-.36.05-1.27.22-2.54.45-3.81.67-2.54.45-5.07.91-7.61,1.36-.44.08-.34.85.11.79.06,0,.12-.02.18-.02.05.09.12.17.26.18,3.07.15,6.13.25,9.2.35,2.62.4,5.26.63,7.82.2,1.85.04,3.69.09,5.55.11.37,0,.81-.35.76-.76l-.67-4.97Z"/>
          <path class="cls-3" d="m101.58,40.59c-.35-1.65-.6-3.54-2.33-4.27-.25-.11-.5-.17-.76-.2-1.21.63-2.41,1.27-3.65,1.84,3.01,4.99,5,10.57,5.75,16.35.15,1.14,1.74,1.2,1.83,0,.33-4.58.11-9.23-.85-13.73Z"/>
        </g>
      </g>
    </g>
  </g>
</svg>