<?xml version="1.0" encoding="UTF-8"?>
<svg id="Layer_2" data-name="Layer 2" xmlns="http://www.w3.org/2000/svg" viewBox="0 0 2035.55 2033.15">
  <defs>
    <style>
      .cls-1 {
        fill: #4b5563;
      }
    </style>
  </defs>
  <g id="Layer_1-2" data-name="Layer 1">
    <path class="cls-1" d="m2035.55,5.97h-792.18v792.19l295.77-295.77c135.83,138.02,210.79,320.26,210.79,514.17s-76.29,380.09-214.77,518.6c-138.56,138.51-322.73,214.8-518.58,214.8s-380.02-76.28-518.55-214.8c-138.53-138.56-214.82-322.7-214.82-518.6s76.29-380.04,214.82-518.55c138.49-138.51,322.65-214.8,518.55-214.8V0C745.01,0,489.75,105.74,297.77,297.77,105.74,489.74,0,745.01,0,1016.55s105.74,526.8,297.77,718.83c192.03,192.02,447.32,297.77,718.81,297.77s526.78-105.74,718.83-297.77c191.98-192.03,297.72-447.3,297.72-718.83s-104.42-522.95-293.76-714.4L2035.55,5.97Z"/>
  </g>
</svg>